<mxfile host="app.diagrams.net" modified="2024-03-16T12:07:15.600Z" agent="Mozilla/5.0 (Windows NT 10.0; Win64; x64) AppleWebKit/537.36 (KHTML, like Gecko) Chrome/122.0.0.0 Safari/537.36 Edg/122.0.0.0" etag="d8wm01Daxvz2kj6wKVRs" version="24.0.7" type="device">
  <diagram name="Страница — 1" id="NnZHxPoPoMswubaMTCdp">
    <mxGraphModel dx="1516" dy="831" grid="0" gridSize="10" guides="1" tooltips="1" connect="1" arrows="1" fold="1" page="0" pageScale="1" pageWidth="827" pageHeight="1169" background="#000000" math="0" shadow="0">
      <root>
        <mxCell id="0" />
        <mxCell id="1" parent="0" />
        <mxCell id="3BxS0lXqYDwHfiZHYGs5-8" style="edgeStyle=orthogonalEdgeStyle;rounded=0;orthogonalLoop=1;jettySize=auto;html=1;entryX=0.5;entryY=0;entryDx=0;entryDy=0;startArrow=ERmandOne;startFill=0;endArrow=ERoneToMany;endFill=0;labelBackgroundColor=none;strokeColor=#DDA15E;fontColor=default;" parent="1" source="2j_MNDeDKbysm00fd2UD-6" target="3BxS0lXqYDwHfiZHYGs5-1" edge="1">
          <mxGeometry relative="1" as="geometry" />
        </mxCell>
        <mxCell id="3BxS0lXqYDwHfiZHYGs5-43" style="edgeStyle=orthogonalEdgeStyle;rounded=0;orthogonalLoop=1;jettySize=auto;html=1;entryX=0;entryY=0.5;entryDx=0;entryDy=0;startArrow=ERmandOne;startFill=0;endArrow=ERoneToMany;endFill=0;labelBackgroundColor=none;strokeColor=#DDA15E;fontColor=default;" parent="1" source="2j_MNDeDKbysm00fd2UD-6" target="3BxS0lXqYDwHfiZHYGs5-37" edge="1">
          <mxGeometry relative="1" as="geometry" />
        </mxCell>
        <mxCell id="2j_MNDeDKbysm00fd2UD-6" value="Place" style="shape=table;startSize=30;container=1;collapsible=1;childLayout=tableLayout;fixedRows=1;rowLines=0;fontStyle=1;align=center;resizeLast=1;verticalAlign=middle;labelBackgroundColor=none;fillColor=#BC6C25;strokeColor=#DDA15E;fontColor=#FEFAE0;" parent="1" vertex="1">
          <mxGeometry x="124" y="65" width="262.53708224826374" height="110" as="geometry">
            <mxRectangle x="-10" y="10" width="180" height="30" as="alternateBounds" />
          </mxGeometry>
        </mxCell>
        <mxCell id="2j_MNDeDKbysm00fd2UD-7" value="" style="shape=partialRectangle;collapsible=0;dropTarget=0;pointerEvents=0;fillColor=none;points=[[0,0.5],[1,0.5]];portConstraint=eastwest;top=0;left=0;right=0;bottom=1;labelBackgroundColor=none;strokeColor=#DDA15E;fontColor=#FEFAE0;" parent="2j_MNDeDKbysm00fd2UD-6" vertex="1">
          <mxGeometry y="30" width="262.53708224826374" height="20" as="geometry" />
        </mxCell>
        <mxCell id="2j_MNDeDKbysm00fd2UD-8" value="PK" style="shape=partialRectangle;overflow=hidden;connectable=0;fillColor=none;top=0;left=0;bottom=0;right=0;fontStyle=1;labelBackgroundColor=none;strokeColor=#DDA15E;fontColor=#FEFAE0;" parent="2j_MNDeDKbysm00fd2UD-7" vertex="1">
          <mxGeometry width="30" height="20" as="geometry">
            <mxRectangle width="30" height="20" as="alternateBounds" />
          </mxGeometry>
        </mxCell>
        <mxCell id="2j_MNDeDKbysm00fd2UD-9" value="id_Place (serial)&#xa;" style="shape=partialRectangle;overflow=hidden;connectable=0;fillColor=none;top=0;left=0;bottom=0;right=0;align=left;spacingLeft=6;fontStyle=5;labelBackgroundColor=none;strokeColor=#DDA15E;fontColor=#FEFAE0;" parent="2j_MNDeDKbysm00fd2UD-7" vertex="1">
          <mxGeometry x="30" width="232.53708224826374" height="20" as="geometry">
            <mxRectangle width="232.53708224826374" height="20" as="alternateBounds" />
          </mxGeometry>
        </mxCell>
        <mxCell id="2j_MNDeDKbysm00fd2UD-10" value="" style="shape=partialRectangle;collapsible=0;dropTarget=0;pointerEvents=0;fillColor=none;points=[[0,0.5],[1,0.5]];portConstraint=eastwest;top=0;left=0;right=0;bottom=0;labelBackgroundColor=none;strokeColor=#DDA15E;fontColor=#FEFAE0;" parent="2j_MNDeDKbysm00fd2UD-6" vertex="1">
          <mxGeometry y="50" width="262.53708224826374" height="60" as="geometry" />
        </mxCell>
        <mxCell id="2j_MNDeDKbysm00fd2UD-11" value="" style="shape=partialRectangle;overflow=hidden;connectable=0;fillColor=none;top=0;left=0;bottom=0;right=0;labelBackgroundColor=none;strokeColor=#DDA15E;fontColor=#FEFAE0;" parent="2j_MNDeDKbysm00fd2UD-10" vertex="1">
          <mxGeometry width="30" height="60" as="geometry">
            <mxRectangle width="30" height="60" as="alternateBounds" />
          </mxGeometry>
        </mxCell>
        <mxCell id="2j_MNDeDKbysm00fd2UD-12" value="- Name (char) NOT NULL&#xa;- Coordinates (varchar(100)) NOT NULL&#xa;- Residential (boolean) NOT NULL" style="shape=partialRectangle;overflow=hidden;connectable=0;fillColor=none;top=0;left=0;bottom=0;right=0;align=left;spacingLeft=6;verticalAlign=top;labelBackgroundColor=none;strokeColor=#DDA15E;fontColor=#FEFAE0;" parent="2j_MNDeDKbysm00fd2UD-10" vertex="1">
          <mxGeometry x="30" width="232.53708224826374" height="60" as="geometry">
            <mxRectangle width="232.53708224826374" height="60" as="alternateBounds" />
          </mxGeometry>
        </mxCell>
        <mxCell id="3BxS0lXqYDwHfiZHYGs5-26" style="edgeStyle=orthogonalEdgeStyle;rounded=0;orthogonalLoop=1;jettySize=auto;html=1;startArrow=ERmandOne;startFill=0;endArrow=ERzeroToMany;endFill=0;labelBackgroundColor=none;strokeColor=#DDA15E;fontColor=default;" parent="1" source="2j_MNDeDKbysm00fd2UD-16" target="N_ES1Cp0_HM9sj915b_s-8" edge="1">
          <mxGeometry relative="1" as="geometry" />
        </mxCell>
        <mxCell id="2j_MNDeDKbysm00fd2UD-16" value="Human" style="shape=table;startSize=30;container=1;collapsible=1;childLayout=tableLayout;fixedRows=1;rowLines=0;fontStyle=1;align=center;resizeLast=1;verticalAlign=middle;labelBackgroundColor=none;fillColor=#BC6C25;strokeColor=#DDA15E;fontColor=#FEFAE0;" parent="1" vertex="1">
          <mxGeometry x="20" y="400" width="210" height="113" as="geometry">
            <mxRectangle x="-10" y="10" width="180" height="30" as="alternateBounds" />
          </mxGeometry>
        </mxCell>
        <mxCell id="2j_MNDeDKbysm00fd2UD-17" value="" style="shape=partialRectangle;collapsible=0;dropTarget=0;pointerEvents=0;fillColor=none;points=[[0,0.5],[1,0.5]];portConstraint=eastwest;top=0;left=0;right=0;bottom=1;labelBackgroundColor=none;strokeColor=#DDA15E;fontColor=#FEFAE0;" parent="2j_MNDeDKbysm00fd2UD-16" vertex="1">
          <mxGeometry y="30" width="210" height="20" as="geometry" />
        </mxCell>
        <mxCell id="2j_MNDeDKbysm00fd2UD-18" value="PK" style="shape=partialRectangle;overflow=hidden;connectable=0;fillColor=none;top=0;left=0;bottom=0;right=0;fontStyle=1;labelBackgroundColor=none;strokeColor=#DDA15E;fontColor=#FEFAE0;" parent="2j_MNDeDKbysm00fd2UD-17" vertex="1">
          <mxGeometry width="30" height="20" as="geometry">
            <mxRectangle width="30" height="20" as="alternateBounds" />
          </mxGeometry>
        </mxCell>
        <mxCell id="2j_MNDeDKbysm00fd2UD-19" value="id Human (serial)" style="shape=partialRectangle;overflow=hidden;connectable=0;fillColor=none;top=0;left=0;bottom=0;right=0;align=left;spacingLeft=6;fontStyle=5;labelBackgroundColor=none;strokeColor=#DDA15E;fontColor=#FEFAE0;" parent="2j_MNDeDKbysm00fd2UD-17" vertex="1">
          <mxGeometry x="30" width="180" height="20" as="geometry">
            <mxRectangle width="180" height="20" as="alternateBounds" />
          </mxGeometry>
        </mxCell>
        <mxCell id="2j_MNDeDKbysm00fd2UD-20" value="" style="shape=partialRectangle;collapsible=0;dropTarget=0;pointerEvents=0;fillColor=none;points=[[0,0.5],[1,0.5]];portConstraint=eastwest;top=0;left=0;right=0;bottom=0;labelBackgroundColor=none;strokeColor=#DDA15E;fontColor=#FEFAE0;" parent="2j_MNDeDKbysm00fd2UD-16" vertex="1">
          <mxGeometry y="50" width="210" height="63" as="geometry" />
        </mxCell>
        <mxCell id="2j_MNDeDKbysm00fd2UD-21" value="" style="shape=partialRectangle;overflow=hidden;connectable=0;fillColor=none;top=0;left=0;bottom=0;right=0;labelBackgroundColor=none;strokeColor=#DDA15E;fontColor=#FEFAE0;" parent="2j_MNDeDKbysm00fd2UD-20" vertex="1">
          <mxGeometry width="30" height="63" as="geometry">
            <mxRectangle width="30" height="63" as="alternateBounds" />
          </mxGeometry>
        </mxCell>
        <mxCell id="2j_MNDeDKbysm00fd2UD-22" value="- Name (char) NOT NULL&#xa;- Gender (char) NOT NULL&#xa;- Age (Integer) NOT NULL" style="shape=partialRectangle;overflow=hidden;connectable=0;fillColor=none;top=0;left=0;bottom=0;right=0;align=left;spacingLeft=6;verticalAlign=top;labelBackgroundColor=none;strokeColor=#DDA15E;fontColor=#FEFAE0;" parent="2j_MNDeDKbysm00fd2UD-20" vertex="1">
          <mxGeometry x="30" width="180" height="63" as="geometry">
            <mxRectangle width="180" height="63" as="alternateBounds" />
          </mxGeometry>
        </mxCell>
        <mxCell id="N_ES1Cp0_HM9sj915b_s-1" value="Camps" style="shape=table;startSize=30;container=1;collapsible=1;childLayout=tableLayout;fixedRows=1;rowLines=0;fontStyle=1;align=center;resizeLast=1;verticalAlign=middle;labelBackgroundColor=none;fillColor=#BC6C25;strokeColor=#DDA15E;fontColor=#FEFAE0;" parent="1" vertex="1">
          <mxGeometry x="287" y="400" width="220" height="100.41668701171875" as="geometry">
            <mxRectangle x="-10" y="10" width="180" height="30" as="alternateBounds" />
          </mxGeometry>
        </mxCell>
        <mxCell id="N_ES1Cp0_HM9sj915b_s-2" value="" style="shape=partialRectangle;collapsible=0;dropTarget=0;pointerEvents=0;fillColor=none;points=[[0,0.5],[1,0.5]];portConstraint=eastwest;top=0;left=0;right=0;bottom=1;labelBackgroundColor=none;strokeColor=#DDA15E;fontColor=#FEFAE0;" parent="N_ES1Cp0_HM9sj915b_s-1" vertex="1">
          <mxGeometry y="30" width="220" height="20" as="geometry" />
        </mxCell>
        <mxCell id="N_ES1Cp0_HM9sj915b_s-3" value="PK" style="shape=partialRectangle;overflow=hidden;connectable=0;fillColor=none;top=0;left=0;bottom=0;right=0;fontStyle=1;labelBackgroundColor=none;strokeColor=#DDA15E;fontColor=#FEFAE0;" parent="N_ES1Cp0_HM9sj915b_s-2" vertex="1">
          <mxGeometry width="30" height="20" as="geometry">
            <mxRectangle width="30" height="20" as="alternateBounds" />
          </mxGeometry>
        </mxCell>
        <mxCell id="N_ES1Cp0_HM9sj915b_s-4" value="id Camps (serial)" style="shape=partialRectangle;overflow=hidden;connectable=0;fillColor=none;top=0;left=0;bottom=0;right=0;align=left;spacingLeft=6;fontStyle=5;labelBackgroundColor=none;strokeColor=#DDA15E;fontColor=#FEFAE0;" parent="N_ES1Cp0_HM9sj915b_s-2" vertex="1">
          <mxGeometry x="30" width="190" height="20" as="geometry">
            <mxRectangle width="190" height="20" as="alternateBounds" />
          </mxGeometry>
        </mxCell>
        <mxCell id="N_ES1Cp0_HM9sj915b_s-5" value="" style="shape=partialRectangle;collapsible=0;dropTarget=0;pointerEvents=0;fillColor=none;points=[[0,0.5],[1,0.5]];portConstraint=eastwest;top=0;left=0;right=0;bottom=0;labelBackgroundColor=none;strokeColor=#DDA15E;fontColor=#FEFAE0;" parent="N_ES1Cp0_HM9sj915b_s-1" vertex="1">
          <mxGeometry y="50" width="220" height="50" as="geometry" />
        </mxCell>
        <mxCell id="N_ES1Cp0_HM9sj915b_s-6" value="" style="shape=partialRectangle;overflow=hidden;connectable=0;fillColor=none;top=0;left=0;bottom=0;right=0;labelBackgroundColor=none;strokeColor=#DDA15E;fontColor=#FEFAE0;" parent="N_ES1Cp0_HM9sj915b_s-5" vertex="1">
          <mxGeometry width="30" height="50" as="geometry">
            <mxRectangle width="30" height="50" as="alternateBounds" />
          </mxGeometry>
        </mxCell>
        <mxCell id="N_ES1Cp0_HM9sj915b_s-7" value="- Name (char) NOT NULL&#xa;-Adaptable_to_life(boolean)" style="shape=partialRectangle;overflow=hidden;connectable=0;fillColor=none;top=0;left=0;bottom=0;right=0;align=left;spacingLeft=6;verticalAlign=top;labelBackgroundColor=none;strokeColor=#DDA15E;fontColor=#FEFAE0;" parent="N_ES1Cp0_HM9sj915b_s-5" vertex="1">
          <mxGeometry x="30" width="190" height="50" as="geometry">
            <mxRectangle width="190" height="50" as="alternateBounds" />
          </mxGeometry>
        </mxCell>
        <mxCell id="3BxS0lXqYDwHfiZHYGs5-28" style="edgeStyle=orthogonalEdgeStyle;rounded=0;orthogonalLoop=1;jettySize=auto;html=1;entryX=0;entryY=0.5;entryDx=0;entryDy=0;startArrow=ERzeroToMany;startFill=0;endArrow=ERmandOne;endFill=0;labelBackgroundColor=none;strokeColor=#DDA15E;fontColor=default;" parent="1" source="N_ES1Cp0_HM9sj915b_s-8" target="3BxS0lXqYDwHfiZHYGs5-12" edge="1">
          <mxGeometry relative="1" as="geometry" />
        </mxCell>
        <mxCell id="N_ES1Cp0_HM9sj915b_s-8" value="Actions_human" style="shape=table;startSize=30;container=1;collapsible=1;childLayout=tableLayout;fixedRows=1;rowLines=0;fontStyle=1;align=center;resizeLast=1;verticalAlign=middle;labelBackgroundColor=none;fillColor=#BC6C25;strokeColor=#DDA15E;fontColor=#FEFAE0;" parent="1" vertex="1">
          <mxGeometry x="194" y="610" width="220" height="120" as="geometry">
            <mxRectangle x="-10" y="10" width="180" height="30" as="alternateBounds" />
          </mxGeometry>
        </mxCell>
        <mxCell id="N_ES1Cp0_HM9sj915b_s-9" value="" style="shape=partialRectangle;collapsible=0;dropTarget=0;pointerEvents=0;fillColor=none;points=[[0,0.5],[1,0.5]];portConstraint=eastwest;top=0;left=0;right=0;bottom=1;labelBackgroundColor=none;strokeColor=#DDA15E;fontColor=#FEFAE0;" parent="N_ES1Cp0_HM9sj915b_s-8" vertex="1">
          <mxGeometry y="30" width="220" height="40" as="geometry" />
        </mxCell>
        <mxCell id="N_ES1Cp0_HM9sj915b_s-10" value="PK" style="shape=partialRectangle;overflow=hidden;connectable=0;fillColor=none;top=0;left=0;bottom=0;right=0;fontStyle=1;labelBackgroundColor=none;strokeColor=#DDA15E;fontColor=#FEFAE0;" parent="N_ES1Cp0_HM9sj915b_s-9" vertex="1">
          <mxGeometry width="30" height="40" as="geometry">
            <mxRectangle width="30" height="40" as="alternateBounds" />
          </mxGeometry>
        </mxCell>
        <mxCell id="N_ES1Cp0_HM9sj915b_s-11" value="FK1 id_Human (integer) NOT NULL&#xa;FK2 id_objects (integer) NOT NULL" style="shape=partialRectangle;overflow=hidden;connectable=0;fillColor=none;top=0;left=0;bottom=0;right=0;align=left;spacingLeft=6;fontStyle=5;labelBackgroundColor=none;strokeColor=#DDA15E;fontColor=#FEFAE0;" parent="N_ES1Cp0_HM9sj915b_s-9" vertex="1">
          <mxGeometry x="30" width="190" height="40" as="geometry">
            <mxRectangle width="190" height="40" as="alternateBounds" />
          </mxGeometry>
        </mxCell>
        <mxCell id="N_ES1Cp0_HM9sj915b_s-12" value="" style="shape=partialRectangle;collapsible=0;dropTarget=0;pointerEvents=0;fillColor=none;points=[[0,0.5],[1,0.5]];portConstraint=eastwest;top=0;left=0;right=0;bottom=0;labelBackgroundColor=none;strokeColor=#DDA15E;fontColor=#FEFAE0;" parent="N_ES1Cp0_HM9sj915b_s-8" vertex="1">
          <mxGeometry y="70" width="220" height="50" as="geometry" />
        </mxCell>
        <mxCell id="N_ES1Cp0_HM9sj915b_s-13" value="" style="shape=partialRectangle;overflow=hidden;connectable=0;fillColor=none;top=0;left=0;bottom=0;right=0;labelBackgroundColor=none;strokeColor=#DDA15E;fontColor=#FEFAE0;" parent="N_ES1Cp0_HM9sj915b_s-12" vertex="1">
          <mxGeometry width="30" height="50" as="geometry">
            <mxRectangle width="30" height="50" as="alternateBounds" />
          </mxGeometry>
        </mxCell>
        <mxCell id="N_ES1Cp0_HM9sj915b_s-14" value="- Action (char) NOT NULL&#xa;- Time_action(datetime)" style="shape=partialRectangle;overflow=hidden;connectable=0;fillColor=none;top=0;left=0;bottom=0;right=0;align=left;spacingLeft=6;verticalAlign=top;labelBackgroundColor=none;strokeColor=#DDA15E;fontColor=#FEFAE0;" parent="N_ES1Cp0_HM9sj915b_s-12" vertex="1">
          <mxGeometry x="30" width="190" height="50" as="geometry">
            <mxRectangle width="190" height="50" as="alternateBounds" />
          </mxGeometry>
        </mxCell>
        <mxCell id="3BxS0lXqYDwHfiZHYGs5-9" style="edgeStyle=orthogonalEdgeStyle;rounded=0;orthogonalLoop=1;jettySize=auto;html=1;startArrow=ERoneToMany;startFill=0;endArrow=ERzeroToOne;endFill=0;labelBackgroundColor=none;strokeColor=#DDA15E;fontColor=default;" parent="1" source="3BxS0lXqYDwHfiZHYGs5-1" target="N_ES1Cp0_HM9sj915b_s-1" edge="1">
          <mxGeometry relative="1" as="geometry" />
        </mxCell>
        <mxCell id="3BxS0lXqYDwHfiZHYGs5-10" style="edgeStyle=orthogonalEdgeStyle;rounded=0;orthogonalLoop=1;jettySize=auto;html=1;entryX=0.5;entryY=0;entryDx=0;entryDy=0;startArrow=ERoneToMany;startFill=0;endArrow=ERzeroToOne;endFill=0;labelBackgroundColor=none;strokeColor=#DDA15E;fontColor=default;" parent="1" source="3BxS0lXqYDwHfiZHYGs5-1" target="2j_MNDeDKbysm00fd2UD-16" edge="1">
          <mxGeometry relative="1" as="geometry" />
        </mxCell>
        <mxCell id="3BxS0lXqYDwHfiZHYGs5-1" value="Location" style="shape=table;startSize=30;container=1;collapsible=1;childLayout=tableLayout;fixedRows=1;rowLines=0;fontStyle=1;align=center;resizeLast=1;verticalAlign=middle;labelBackgroundColor=none;fillColor=#BC6C25;strokeColor=#DDA15E;fontColor=#FEFAE0;" parent="1" vertex="1">
          <mxGeometry x="145.27" y="225" width="220" height="100" as="geometry">
            <mxRectangle x="-10" y="10" width="180" height="30" as="alternateBounds" />
          </mxGeometry>
        </mxCell>
        <mxCell id="3BxS0lXqYDwHfiZHYGs5-2" value="" style="shape=partialRectangle;collapsible=0;dropTarget=0;pointerEvents=0;fillColor=none;points=[[0,0.5],[1,0.5]];portConstraint=eastwest;top=0;left=0;right=0;bottom=1;labelBackgroundColor=none;strokeColor=#DDA15E;fontColor=#FEFAE0;" parent="3BxS0lXqYDwHfiZHYGs5-1" vertex="1">
          <mxGeometry y="30" width="220" height="50" as="geometry" />
        </mxCell>
        <mxCell id="3BxS0lXqYDwHfiZHYGs5-3" value="PK" style="shape=partialRectangle;overflow=hidden;connectable=0;fillColor=none;top=0;left=0;bottom=0;right=0;fontStyle=1;labelBackgroundColor=none;strokeColor=#DDA15E;fontColor=#FEFAE0;" parent="3BxS0lXqYDwHfiZHYGs5-2" vertex="1">
          <mxGeometry width="30" height="50" as="geometry">
            <mxRectangle width="30" height="50" as="alternateBounds" />
          </mxGeometry>
        </mxCell>
        <mxCell id="3BxS0lXqYDwHfiZHYGs5-4" value="FK1 id_Human (integer)&#xa;FK2 id_Campus (integer)&#xa;FK3 id_Place (integer) NOT NULL&#xa;" style="shape=partialRectangle;overflow=hidden;connectable=0;fillColor=none;top=0;left=0;bottom=0;right=0;align=left;spacingLeft=6;fontStyle=5;labelBackgroundColor=none;strokeColor=#DDA15E;fontColor=#FEFAE0;" parent="3BxS0lXqYDwHfiZHYGs5-2" vertex="1">
          <mxGeometry x="30" width="190" height="50" as="geometry">
            <mxRectangle width="190" height="50" as="alternateBounds" />
          </mxGeometry>
        </mxCell>
        <mxCell id="3BxS0lXqYDwHfiZHYGs5-5" value="" style="shape=partialRectangle;collapsible=0;dropTarget=0;pointerEvents=0;fillColor=none;points=[[0,0.5],[1,0.5]];portConstraint=eastwest;top=0;left=0;right=0;bottom=0;labelBackgroundColor=none;strokeColor=#DDA15E;fontColor=#FEFAE0;" parent="3BxS0lXqYDwHfiZHYGs5-1" vertex="1">
          <mxGeometry y="80" width="220" height="20" as="geometry" />
        </mxCell>
        <mxCell id="3BxS0lXqYDwHfiZHYGs5-6" value="" style="shape=partialRectangle;overflow=hidden;connectable=0;fillColor=none;top=0;left=0;bottom=0;right=0;labelBackgroundColor=none;strokeColor=#DDA15E;fontColor=#FEFAE0;" parent="3BxS0lXqYDwHfiZHYGs5-5" vertex="1">
          <mxGeometry width="30" height="20" as="geometry">
            <mxRectangle width="30" height="20" as="alternateBounds" />
          </mxGeometry>
        </mxCell>
        <mxCell id="3BxS0lXqYDwHfiZHYGs5-7" value="" style="shape=partialRectangle;overflow=hidden;connectable=0;fillColor=none;top=0;left=0;bottom=0;right=0;align=left;spacingLeft=6;verticalAlign=top;labelBackgroundColor=none;strokeColor=#DDA15E;fontColor=#FEFAE0;" parent="3BxS0lXqYDwHfiZHYGs5-5" vertex="1">
          <mxGeometry x="30" width="190" height="20" as="geometry">
            <mxRectangle width="190" height="20" as="alternateBounds" />
          </mxGeometry>
        </mxCell>
        <mxCell id="3BxS0lXqYDwHfiZHYGs5-11" value="Object" style="shape=table;startSize=30;container=1;collapsible=1;childLayout=tableLayout;fixedRows=1;rowLines=0;fontStyle=1;align=center;resizeLast=1;verticalAlign=middle;labelBackgroundColor=none;fillColor=#BC6C25;strokeColor=#DDA15E;fontColor=#FEFAE0;" parent="1" vertex="1">
          <mxGeometry x="540" y="650" width="210" height="80" as="geometry">
            <mxRectangle x="-10" y="10" width="180" height="30" as="alternateBounds" />
          </mxGeometry>
        </mxCell>
        <mxCell id="3BxS0lXqYDwHfiZHYGs5-12" value="" style="shape=partialRectangle;collapsible=0;dropTarget=0;pointerEvents=0;fillColor=none;points=[[0,0.5],[1,0.5]];portConstraint=eastwest;top=0;left=0;right=0;bottom=1;labelBackgroundColor=none;strokeColor=#DDA15E;fontColor=#FEFAE0;" parent="3BxS0lXqYDwHfiZHYGs5-11" vertex="1">
          <mxGeometry y="30" width="210" height="20" as="geometry" />
        </mxCell>
        <mxCell id="3BxS0lXqYDwHfiZHYGs5-13" value="PK" style="shape=partialRectangle;overflow=hidden;connectable=0;fillColor=none;top=0;left=0;bottom=0;right=0;fontStyle=1;labelBackgroundColor=none;strokeColor=#DDA15E;fontColor=#FEFAE0;" parent="3BxS0lXqYDwHfiZHYGs5-12" vertex="1">
          <mxGeometry width="30" height="20" as="geometry">
            <mxRectangle width="30" height="20" as="alternateBounds" />
          </mxGeometry>
        </mxCell>
        <mxCell id="3BxS0lXqYDwHfiZHYGs5-14" value="id Object (serial)" style="shape=partialRectangle;overflow=hidden;connectable=0;fillColor=none;top=0;left=0;bottom=0;right=0;align=left;spacingLeft=6;fontStyle=5;labelBackgroundColor=none;strokeColor=#DDA15E;fontColor=#FEFAE0;" parent="3BxS0lXqYDwHfiZHYGs5-12" vertex="1">
          <mxGeometry x="30" width="180" height="20" as="geometry">
            <mxRectangle width="180" height="20" as="alternateBounds" />
          </mxGeometry>
        </mxCell>
        <mxCell id="3BxS0lXqYDwHfiZHYGs5-15" value="" style="shape=partialRectangle;collapsible=0;dropTarget=0;pointerEvents=0;fillColor=none;points=[[0,0.5],[1,0.5]];portConstraint=eastwest;top=0;left=0;right=0;bottom=0;labelBackgroundColor=none;strokeColor=#DDA15E;fontColor=#FEFAE0;" parent="3BxS0lXqYDwHfiZHYGs5-11" vertex="1">
          <mxGeometry y="50" width="210" height="30" as="geometry" />
        </mxCell>
        <mxCell id="3BxS0lXqYDwHfiZHYGs5-16" value="" style="shape=partialRectangle;overflow=hidden;connectable=0;fillColor=none;top=0;left=0;bottom=0;right=0;labelBackgroundColor=none;strokeColor=#DDA15E;fontColor=#FEFAE0;" parent="3BxS0lXqYDwHfiZHYGs5-15" vertex="1">
          <mxGeometry width="30" height="30" as="geometry">
            <mxRectangle width="30" height="30" as="alternateBounds" />
          </mxGeometry>
        </mxCell>
        <mxCell id="3BxS0lXqYDwHfiZHYGs5-17" value="- Name (char) NOT NULL&#xa;" style="shape=partialRectangle;overflow=hidden;connectable=0;fillColor=none;top=0;left=0;bottom=0;right=0;align=left;spacingLeft=6;verticalAlign=top;labelBackgroundColor=none;strokeColor=#DDA15E;fontColor=#FEFAE0;" parent="3BxS0lXqYDwHfiZHYGs5-15" vertex="1">
          <mxGeometry x="30" width="180" height="30" as="geometry">
            <mxRectangle width="180" height="30" as="alternateBounds" />
          </mxGeometry>
        </mxCell>
        <mxCell id="3BxS0lXqYDwHfiZHYGs5-44" style="edgeStyle=orthogonalEdgeStyle;rounded=0;orthogonalLoop=1;jettySize=auto;html=1;entryX=1;entryY=0.5;entryDx=0;entryDy=0;startArrow=ERmandOne;startFill=0;endArrow=ERoneToMany;endFill=0;labelBackgroundColor=none;strokeColor=#DDA15E;fontColor=default;" parent="1" source="3BxS0lXqYDwHfiZHYGs5-19" target="3BxS0lXqYDwHfiZHYGs5-37" edge="1">
          <mxGeometry relative="1" as="geometry" />
        </mxCell>
        <mxCell id="3BxS0lXqYDwHfiZHYGs5-46" style="edgeStyle=orthogonalEdgeStyle;rounded=0;orthogonalLoop=1;jettySize=auto;html=1;entryX=0.5;entryY=0;entryDx=0;entryDy=0;endArrow=ERoneToMany;endFill=0;startArrow=ERmandOne;startFill=0;labelBackgroundColor=none;strokeColor=#DDA15E;fontColor=default;" parent="1" source="3BxS0lXqYDwHfiZHYGs5-19" target="3BxS0lXqYDwHfiZHYGs5-29" edge="1">
          <mxGeometry relative="1" as="geometry" />
        </mxCell>
        <mxCell id="3BxS0lXqYDwHfiZHYGs5-19" value="Specifications" style="shape=table;startSize=30;container=1;collapsible=1;childLayout=tableLayout;fixedRows=1;rowLines=0;fontStyle=1;align=center;resizeLast=1;verticalAlign=middle;labelBackgroundColor=none;fillColor=#BC6C25;strokeColor=#DDA15E;fontColor=#FEFAE0;" parent="1" vertex="1">
          <mxGeometry x="661" y="252" width="210" height="80" as="geometry">
            <mxRectangle x="-10" y="10" width="180" height="30" as="alternateBounds" />
          </mxGeometry>
        </mxCell>
        <mxCell id="3BxS0lXqYDwHfiZHYGs5-20" value="" style="shape=partialRectangle;collapsible=0;dropTarget=0;pointerEvents=0;fillColor=none;points=[[0,0.5],[1,0.5]];portConstraint=eastwest;top=0;left=0;right=0;bottom=1;labelBackgroundColor=none;strokeColor=#DDA15E;fontColor=#FEFAE0;" parent="3BxS0lXqYDwHfiZHYGs5-19" vertex="1">
          <mxGeometry y="30" width="210" height="20" as="geometry" />
        </mxCell>
        <mxCell id="3BxS0lXqYDwHfiZHYGs5-21" value="PK" style="shape=partialRectangle;overflow=hidden;connectable=0;fillColor=none;top=0;left=0;bottom=0;right=0;fontStyle=1;labelBackgroundColor=none;strokeColor=#DDA15E;fontColor=#FEFAE0;" parent="3BxS0lXqYDwHfiZHYGs5-20" vertex="1">
          <mxGeometry width="30" height="20" as="geometry">
            <mxRectangle width="30" height="20" as="alternateBounds" />
          </mxGeometry>
        </mxCell>
        <mxCell id="3BxS0lXqYDwHfiZHYGs5-22" value="id Specifications (serial)" style="shape=partialRectangle;overflow=hidden;connectable=0;fillColor=none;top=0;left=0;bottom=0;right=0;align=left;spacingLeft=6;fontStyle=5;labelBackgroundColor=none;strokeColor=#DDA15E;fontColor=#FEFAE0;" parent="3BxS0lXqYDwHfiZHYGs5-20" vertex="1">
          <mxGeometry x="30" width="180" height="20" as="geometry">
            <mxRectangle width="180" height="20" as="alternateBounds" />
          </mxGeometry>
        </mxCell>
        <mxCell id="3BxS0lXqYDwHfiZHYGs5-23" value="" style="shape=partialRectangle;collapsible=0;dropTarget=0;pointerEvents=0;fillColor=none;points=[[0,0.5],[1,0.5]];portConstraint=eastwest;top=0;left=0;right=0;bottom=0;labelBackgroundColor=none;strokeColor=#DDA15E;fontColor=#FEFAE0;" parent="3BxS0lXqYDwHfiZHYGs5-19" vertex="1">
          <mxGeometry y="50" width="210" height="30" as="geometry" />
        </mxCell>
        <mxCell id="3BxS0lXqYDwHfiZHYGs5-24" value="" style="shape=partialRectangle;overflow=hidden;connectable=0;fillColor=none;top=0;left=0;bottom=0;right=0;labelBackgroundColor=none;strokeColor=#DDA15E;fontColor=#FEFAE0;" parent="3BxS0lXqYDwHfiZHYGs5-23" vertex="1">
          <mxGeometry width="30" height="30" as="geometry">
            <mxRectangle width="30" height="30" as="alternateBounds" />
          </mxGeometry>
        </mxCell>
        <mxCell id="3BxS0lXqYDwHfiZHYGs5-25" value="- Name (char) NOT NULL&#xa;" style="shape=partialRectangle;overflow=hidden;connectable=0;fillColor=none;top=0;left=0;bottom=0;right=0;align=left;spacingLeft=6;verticalAlign=top;labelBackgroundColor=none;strokeColor=#DDA15E;fontColor=#FEFAE0;" parent="3BxS0lXqYDwHfiZHYGs5-23" vertex="1">
          <mxGeometry x="30" width="180" height="30" as="geometry">
            <mxRectangle width="180" height="30" as="alternateBounds" />
          </mxGeometry>
        </mxCell>
        <mxCell id="3BxS0lXqYDwHfiZHYGs5-29" value="Description_Object" style="shape=table;startSize=30;container=1;collapsible=1;childLayout=tableLayout;fixedRows=1;rowLines=0;fontStyle=1;align=center;resizeLast=1;verticalAlign=middle;labelBackgroundColor=none;fillColor=#BC6C25;strokeColor=#DDA15E;fontColor=#FEFAE0;" parent="1" vertex="1">
          <mxGeometry x="633.16" y="390" width="265.68869565217403" height="140" as="geometry">
            <mxRectangle x="-10" y="10" width="180" height="30" as="alternateBounds" />
          </mxGeometry>
        </mxCell>
        <mxCell id="3BxS0lXqYDwHfiZHYGs5-30" value="" style="shape=partialRectangle;collapsible=0;dropTarget=0;pointerEvents=0;fillColor=none;points=[[0,0.5],[1,0.5]];portConstraint=eastwest;top=0;left=0;right=0;bottom=1;labelBackgroundColor=none;strokeColor=#DDA15E;fontColor=#FEFAE0;" parent="3BxS0lXqYDwHfiZHYGs5-29" vertex="1">
          <mxGeometry y="30" width="265.68869565217403" height="40" as="geometry" />
        </mxCell>
        <mxCell id="3BxS0lXqYDwHfiZHYGs5-31" value="PK" style="shape=partialRectangle;overflow=hidden;connectable=0;fillColor=none;top=0;left=0;bottom=0;right=0;fontStyle=1;labelBackgroundColor=none;strokeColor=#DDA15E;fontColor=#FEFAE0;" parent="3BxS0lXqYDwHfiZHYGs5-30" vertex="1">
          <mxGeometry width="30" height="40" as="geometry">
            <mxRectangle width="30" height="40" as="alternateBounds" />
          </mxGeometry>
        </mxCell>
        <mxCell id="3BxS0lXqYDwHfiZHYGs5-32" value="FK1 id_Object (integer) NOT NULL&#xa;FK2 id_Specifications (integer) NOT NULL" style="shape=partialRectangle;overflow=hidden;connectable=0;fillColor=none;top=0;left=0;bottom=0;right=0;align=left;spacingLeft=6;fontStyle=5;labelBackgroundColor=none;strokeColor=#DDA15E;fontColor=#FEFAE0;" parent="3BxS0lXqYDwHfiZHYGs5-30" vertex="1">
          <mxGeometry x="30" width="235.68869565217403" height="40" as="geometry">
            <mxRectangle width="235.68869565217403" height="40" as="alternateBounds" />
          </mxGeometry>
        </mxCell>
        <mxCell id="3BxS0lXqYDwHfiZHYGs5-33" value="" style="shape=partialRectangle;collapsible=0;dropTarget=0;pointerEvents=0;fillColor=none;points=[[0,0.5],[1,0.5]];portConstraint=eastwest;top=0;left=0;right=0;bottom=0;labelBackgroundColor=none;strokeColor=#DDA15E;fontColor=#FEFAE0;" parent="3BxS0lXqYDwHfiZHYGs5-29" vertex="1">
          <mxGeometry y="70" width="265.68869565217403" height="70" as="geometry" />
        </mxCell>
        <mxCell id="3BxS0lXqYDwHfiZHYGs5-34" value="" style="shape=partialRectangle;overflow=hidden;connectable=0;fillColor=none;top=0;left=0;bottom=0;right=0;labelBackgroundColor=none;strokeColor=#DDA15E;fontColor=#FEFAE0;" parent="3BxS0lXqYDwHfiZHYGs5-33" vertex="1">
          <mxGeometry width="30" height="70" as="geometry">
            <mxRectangle width="30" height="70" as="alternateBounds" />
          </mxGeometry>
        </mxCell>
        <mxCell id="3BxS0lXqYDwHfiZHYGs5-35" value=" - Size (float) NOT NULL&#xa; - Able_to_live (boolean) NOT NULL&#xa; - Sparkling (boolean) NOT NULL&#xa; - Color (char) NOT NULL" style="shape=partialRectangle;overflow=hidden;connectable=0;fillColor=none;top=0;left=0;bottom=0;right=0;align=left;spacingLeft=6;verticalAlign=top;labelBackgroundColor=none;strokeColor=#DDA15E;fontColor=#FEFAE0;" parent="3BxS0lXqYDwHfiZHYGs5-33" vertex="1">
          <mxGeometry x="30" width="235.68869565217403" height="70" as="geometry">
            <mxRectangle width="235.68869565217403" height="70" as="alternateBounds" />
          </mxGeometry>
        </mxCell>
        <mxCell id="3BxS0lXqYDwHfiZHYGs5-36" value="Description_Place" style="shape=table;startSize=28;container=1;collapsible=1;childLayout=tableLayout;fixedRows=1;rowLines=0;fontStyle=1;align=center;resizeLast=1;verticalAlign=middle;labelBackgroundColor=none;fillColor=#BC6C25;strokeColor=#DDA15E;fontColor=#FEFAE0;" parent="1" vertex="1">
          <mxGeometry x="479" y="71" width="243.4166259765625" height="130" as="geometry">
            <mxRectangle x="-10" y="10" width="180" height="30" as="alternateBounds" />
          </mxGeometry>
        </mxCell>
        <mxCell id="3BxS0lXqYDwHfiZHYGs5-37" value="" style="shape=partialRectangle;collapsible=0;dropTarget=0;pointerEvents=0;fillColor=none;points=[[0,0.5],[1,0.5]];portConstraint=eastwest;top=0;left=0;right=0;bottom=1;labelBackgroundColor=none;strokeColor=#DDA15E;fontColor=#FEFAE0;" parent="3BxS0lXqYDwHfiZHYGs5-36" vertex="1">
          <mxGeometry y="28" width="243.4166259765625" height="40" as="geometry" />
        </mxCell>
        <mxCell id="3BxS0lXqYDwHfiZHYGs5-38" value="PK" style="shape=partialRectangle;overflow=hidden;connectable=0;fillColor=none;top=0;left=0;bottom=0;right=0;fontStyle=1;labelBackgroundColor=none;strokeColor=#DDA15E;fontColor=#FEFAE0;" parent="3BxS0lXqYDwHfiZHYGs5-37" vertex="1">
          <mxGeometry width="30" height="40" as="geometry">
            <mxRectangle width="30" height="40" as="alternateBounds" />
          </mxGeometry>
        </mxCell>
        <mxCell id="3BxS0lXqYDwHfiZHYGs5-39" value="FK1 id_Place (integer) NOT NULL &#xa;FK2 id_Specifications (integer) NOT NULL&#xa;" style="shape=partialRectangle;overflow=hidden;connectable=0;fillColor=none;top=0;left=0;bottom=0;right=0;align=left;spacingLeft=6;fontStyle=5;labelBackgroundColor=none;strokeColor=#DDA15E;fontColor=#FEFAE0;" parent="3BxS0lXqYDwHfiZHYGs5-37" vertex="1">
          <mxGeometry x="30" width="213.4166259765625" height="40" as="geometry">
            <mxRectangle width="213.4166259765625" height="40" as="alternateBounds" />
          </mxGeometry>
        </mxCell>
        <mxCell id="3BxS0lXqYDwHfiZHYGs5-40" value="" style="shape=partialRectangle;collapsible=0;dropTarget=0;pointerEvents=0;fillColor=none;points=[[0,0.5],[1,0.5]];portConstraint=eastwest;top=0;left=0;right=0;bottom=0;labelBackgroundColor=none;strokeColor=#DDA15E;fontColor=#FEFAE0;" parent="3BxS0lXqYDwHfiZHYGs5-36" vertex="1">
          <mxGeometry y="68" width="243.4166259765625" height="60" as="geometry" />
        </mxCell>
        <mxCell id="3BxS0lXqYDwHfiZHYGs5-41" value="" style="shape=partialRectangle;overflow=hidden;connectable=0;fillColor=none;top=0;left=0;bottom=0;right=0;labelBackgroundColor=none;strokeColor=#DDA15E;fontColor=#FEFAE0;" parent="3BxS0lXqYDwHfiZHYGs5-40" vertex="1">
          <mxGeometry width="30" height="60" as="geometry">
            <mxRectangle width="30" height="60" as="alternateBounds" />
          </mxGeometry>
        </mxCell>
        <mxCell id="3BxS0lXqYDwHfiZHYGs5-42" value=" - Planet (char) NOT NULL&#xa; - Country (char) NOT NULL&#xa; - Living_environment (char)" style="shape=partialRectangle;overflow=hidden;connectable=0;fillColor=none;top=0;left=0;bottom=0;right=0;align=left;spacingLeft=6;verticalAlign=top;labelBackgroundColor=none;strokeColor=#DDA15E;fontColor=#FEFAE0;" parent="3BxS0lXqYDwHfiZHYGs5-40" vertex="1">
          <mxGeometry x="30" width="213.4166259765625" height="60" as="geometry">
            <mxRectangle width="213.4166259765625" height="60" as="alternateBounds" />
          </mxGeometry>
        </mxCell>
        <mxCell id="3BxS0lXqYDwHfiZHYGs5-45" style="edgeStyle=orthogonalEdgeStyle;rounded=0;orthogonalLoop=1;jettySize=auto;html=1;startArrow=ERmandOne;startFill=0;endArrow=ERoneToMany;endFill=0;labelBackgroundColor=none;strokeColor=#DDA15E;fontColor=default;" parent="1" source="3BxS0lXqYDwHfiZHYGs5-11" edge="1">
          <mxGeometry relative="1" as="geometry">
            <Array as="points">
              <mxPoint x="645" y="620" />
              <mxPoint x="762" y="620" />
              <mxPoint x="762" y="532" />
            </Array>
            <mxPoint x="762" y="530" as="targetPoint" />
          </mxGeometry>
        </mxCell>
      </root>
    </mxGraphModel>
  </diagram>
</mxfile>
